<svg xmlns="http://www.w3.org/2000/svg" width="23" height="23" viewBox="0 0 23 23"><defs><style>.a{fill:none;stroke:#c1bfb7;stroke-linecap:round;stroke-linejoin:round;stroke-miterlimit:10;}</style></defs><g transform="translate(-2.5 -1.5)"><line class="a" y2="18.586" transform="translate(15.138 2)"/><ellipse class="a" cx="3.414" cy="3.414" rx="3.414" ry="3.414" transform="translate(8.31 17.172)"/><line class="a" x2="9.103" transform="translate(3 4.655)"/><line class="a" x2="9.103" transform="translate(3 8.069)"/><line class="a" x2="9.103" transform="translate(3 11.483)"/><line class="a" x2="3.414" transform="translate(3 14.897)"/><path class="a" d="M35,8.174A5.668,5.668,0,0,0,39.172,10a5.69,5.69,0,0,1,5.69,5.69,5.823,5.823,0,0,1-.038.649,5.668,5.668,0,0,0-4.134-1.787,5.657,5.657,0,0,1-3.415-1.146" transform="translate(-19.862 -3.832)"/></g></svg>