<svg xmlns="http://www.w3.org/2000/svg" width="17" height="23" viewBox="0 0 17 23"><defs><style>.a{fill:none;stroke:#c1bfb7;stroke-linecap:round;stroke-linejoin:round;stroke-miterlimit:10;}</style></defs><g transform="translate(-7.5 -1.5)"><path class="a" d="M19,17h0a5,5,0,0,1-5-5V7a5,5,0,0,1,5-5h0a5,5,0,0,1,5,5v5A5,5,0,0,1,19,17Z" transform="translate(-3)"/><line class="a" x2="10" transform="translate(11 24)"/><line class="a" y2="4" transform="translate(16 20)"/><path class="a" d="M24,22a8,8,0,0,1-8,8h0a8,8,0,0,1-8-8" transform="translate(0 -10)"/><line class="a" x2="2.5" transform="translate(11 8)"/><line class="a" x2="2.5" transform="translate(11 11.5)"/><line class="a" x2="2.5" transform="translate(18.5 8)"/><line class="a" x2="2.5" transform="translate(18.5 11.5)"/></g></svg>