<svg xmlns="http://www.w3.org/2000/svg" width="19.692" height="16" viewBox="0 0 19.692 16">
  <g id="logo-twitter" transform="translate(-64.8 -1.5)">
    <path id="Path_5" data-name="Path 5" d="M19.692,3.346a7.284,7.284,0,0,1-2.338.615,3.48,3.48,0,0,0,1.723-2.215,8.075,8.075,0,0,1-2.585.985A4.3,4.3,0,0,0,13.538,1.5,4.075,4.075,0,0,0,9.6,5.562a1.825,1.825,0,0,0,.123.862A11.325,11.325,0,0,1,1.354,2.238,3.771,3.771,0,0,0,.862,4.331,4.039,4.039,0,0,0,2.708,7.654,5.158,5.158,0,0,1,.862,7.162h0a3.973,3.973,0,0,0,3.2,3.938,3.407,3.407,0,0,1-1.108.123,1.561,1.561,0,0,1-.738-.123,3.988,3.988,0,0,0,3.815,2.831A7.826,7.826,0,0,1,.985,15.654H0A12.008,12.008,0,0,0,6.154,17.5,11.392,11.392,0,0,0,17.6,6.054V5.562A7.155,7.155,0,0,0,19.692,3.346Z" transform="translate(64.8)" fill="#c1bfb7"/>
  </g>
</svg>
