<svg id="logo-linkedin" xmlns="http://www.w3.org/2000/svg" width="16.1" height="16" viewBox="0 0 16.1 16">
  <path id="Path_6" data-name="Path 6" d="M15.3,0H.7A.684.684,0,0,0,0,.7V15.4a.669.669,0,0,0,.7.6H15.4a.684.684,0,0,0,.7-.7V.7A.849.849,0,0,0,15.3,0ZM4.7,13.6H2.4V6H4.8v7.6ZM3.6,5A1.43,1.43,0,0,1,2.2,3.6,1.367,1.367,0,0,1,3.6,2.2,1.367,1.367,0,0,1,5,3.6,1.593,1.593,0,0,1,3.6,5Zm10,8.6H11.2V9.9c0-.9,0-2-1.2-2s-1.4,1-1.4,2v3.8H6.2V6H8.5V7h0a2.441,2.441,0,0,1,2.2-1.2c2.4,0,2.8,1.6,2.8,3.6v4.2Z" fill="#c1bfb7"/>
</svg>
